<svg width="1633" height="789" viewBox="0 0 1633 789" fill="none" xmlns="http://www.w3.org/2000/svg">
<g clip-path="url(#clip0_221_70)">
<path d="M1394.1 775H-287V771H1394.1C1395.15 771 1396 771.895 1396 773C1396 774.105 1395.15 775 1394.1 775Z" fill="#570186"/>
<path d="M756.068 778.977L1082.39 769.712C1082.39 769.712 1057.83 622.77 1136.63 581.983C1190.35 554.172 1238.03 424.24 1224.46 335.848C1224.28 334.664 1224.09 333.496 1223.88 332.344C1217 292.756 1197.35 262.113 1159.8 253.792C1038.35 226.91 951.678 247.759 951.678 247.759C951.678 247.759 931.613 248.016 901.883 253.6C900.827 253.792 899.771 254 898.699 254.224C814.535 270.722 658.975 329.447 652.239 537.947C642.975 824.405 756.068 778.977 756.068 778.977Z" fill="#514D79"/>
<path d="M901.883 253.6C902.427 268.545 905.82 283.395 912.012 297.524C924.844 326.791 948.222 349.145 977.839 360.474C1066.53 394.429 1170.06 360.746 1222.41 324.231C1222.62 325.383 1226.78 347.263 1226.96 348.447C1203.77 364.304 1090.32 379.611 1068.8 379.611C1036.13 379.611 1004.67 374.187 976.687 363.466C946.269 351.817 922.268 328.855 909.084 298.804C902.795 284.467 899.323 269.393 898.699 254.224C899.771 254 900.827 253.792 901.883 253.6Z" fill="#570186"/>
<path d="M877.752 272.629L929.77 141.837C929.77 141.837 867.349 34.8257 916.394 22.9356C965.439 11.0454 1015.97 74.955 1015.97 74.955C1015.97 74.955 1109.6 42.2571 1145.27 69.0099C1145.27 69.0099 1204.72 -14.2212 1240.39 2.12778C1276.06 18.4768 1227.71 136.314 1227.71 136.314C1227.71 136.314 1301.32 244.39 1244.85 306.813C1188.37 369.237 975.842 419.77 877.752 272.629Z" fill="#514D79"/>
<path d="M766.194 700.694C748.485 708.573 729.982 716.612 710.614 715.843C691.247 715.074 670.866 702.601 667.848 683.454C666.29 673.57 669.38 662.966 665.596 653.703C660.504 641.24 644.08 636.433 631.313 640.704C618.546 644.975 609.166 655.989 602.441 667.652C589.86 689.473 584.818 718.112 598.308 739.383C610.003 757.823 632.183 766.155 652.815 773.302C680.297 782.822 710.98 792.27 737.61 780.577C764.392 768.816 778.981 734.837 769.063 707.318" fill="#514D79"/>
<path d="M1059.2 213.82C1059.2 213.82 1091.2 201.019 1112.01 217.021L1088 253.824C1088 253.824 1059.2 213.82 1059.2 213.82Z" fill="#570186"/>
<path d="M1227.21 381.836L1168.01 697.065C1168.01 697.065 1257.61 788.274 1142.41 786.674C1027.2 785.073 1060.8 725.868 1060.8 725.868L1097.6 452.243" fill="#514D79"/>
<path d="M1145.31 789C1176.51 789 1195.38 781.848 1201.42 767.723C1212.42 741.993 1176.61 702.756 1170.48 696.302L1210.28 460.627L1205.74 459.859L1165.54 697.841L1166.36 698.681C1166.78 699.103 1207.74 741.232 1197.18 765.912C1191.76 778.589 1173.38 784.811 1142.44 784.367C1099.43 783.77 1071.7 774.757 1062.24 758.306C1053.72 743.49 1062.72 727.166 1062.81 727.003L1063.03 726.617L1063.09 726.175L1088.69 535.758L1084.12 535.143L1058.57 725.141C1057.06 728.019 1049.1 744.649 1058.21 760.561C1068.66 778.787 1096.97 788.349 1142.37 788.98C1143.37 788.993 1144.35 789 1145.31 789Z" fill="#570186"/>
<path d="M1076.8 381.836L1017.6 697.065C1017.6 697.065 1107.21 788.274 992 786.674C876.794 785.073 910.396 725.868 910.396 725.868L947.197 452.243" fill="#514D79"/>
<path d="M994.908 789C1026.11 789 1044.98 781.848 1051.02 767.723C1062.01 742.019 1026.28 702.833 1020.09 696.321L1043.87 569.478L1039.34 568.629L1015.11 697.823L1015.96 698.681C1016.37 699.103 1057.33 741.232 1046.77 765.912C1041.35 778.587 1022.96 784.834 992.032 784.367C948.99 783.769 921.249 774.744 911.807 758.267C903.292 743.403 912.309 727.168 912.401 727.006L912.622 726.618L949.483 452.55L944.911 451.936L908.166 725.141C906.651 728.019 898.689 744.649 907.806 760.561C918.25 778.787 946.566 788.349 991.968 788.98C992.959 788.993 993.939 789 994.908 789Z" fill="#570186"/>
</g>
<defs>
<clipPath id="clip0_221_70">
<rect width="2048" height="789" fill="white" transform="matrix(-1 0 0 1 2048 0)"/>
</clipPath>
</defs>
</svg>
