<svg width="20" height="20" viewBox="0 0 20 20" fill="none" xmlns="http://www.w3.org/2000/svg">
<path d="M12.3739 10.0003L19.8022 2.57255C20.0659 2.30878 20.0659 1.88193 19.8022 1.61825L18.3825 0.198073C18.2561 0.0717209 18.0845 0.000579834 17.9054 0.000579834C17.7263 0.000579834 17.5547 0.0717209 17.4283 0.198073L10 7.62643L2.57174 0.198073C2.4453 0.0717209 2.27372 0.000579834 2.09459 0.000579834C1.9155 0.000579834 1.74388 0.0717209 1.61748 0.198073L0.19783 1.61825C-0.0659432 1.88193 -0.0659432 2.30878 0.19783 2.57255L7.6261 10.0004L0.198568 17.4273C-0.0650751 17.6911 -0.0650751 18.1179 0.198568 18.3816L1.61831 19.8018C1.74466 19.9281 1.91628 19.9993 2.09542 19.9993C2.27455 19.9993 2.44613 19.9281 2.57261 19.8018L9.99997 12.3743L17.4274 19.8018C17.5538 19.9281 17.7254 19.9993 17.9045 19.9993C18.0837 19.9993 18.2553 19.9281 18.3816 19.8018L19.8014 18.3816C20.065 18.1179 20.065 17.6911 19.8014 17.4273L12.3739 10.0003Z" fill="#395290" stroke="#395290" stroke-width="0.434051"/>
</svg>
