<svg width="32" height="32" viewBox="0 0 32 32" fill="none" xmlns="http://www.w3.org/2000/svg">
    <path fill-rule="evenodd" clip-rule="evenodd"
        d="M14.1031 10.138C13.7535 10.4006 13.5208 10.7771 13.5208 11.3958C13.5208 12.1782 12.8866 12.8125 12.1042 12.8125C11.3218 12.8125 10.6875 12.1782 10.6875 11.3958C10.6875 9.88952 11.3366 8.6723 12.4017 7.87241C13.4198 7.10782 14.7203 6.79166 16 6.79166C17.527 6.79166 18.8149 7.25092 19.7451 8.1304C20.6681 9.0031 21.1065 10.165 21.1752 11.3257C21.3101 13.5976 20.0573 16.0973 17.7653 17.407C17.5569 17.5262 17.428 17.6238 17.3499 17.694C17.5276 18.2505 17.3471 18.8822 16.8548 19.2546C16.2309 19.7268 15.3425 19.6037 14.8703 18.9798C14.8703 18.9798 14.8711 18.9808 14.8689 18.978L14.8674 18.976C14.5275 18.5188 14.3921 17.9196 14.4611 17.3579C14.5797 16.3924 15.253 15.5794 16.3597 14.9471C17.7222 14.1684 18.4175 12.6837 18.347 11.4934C18.3131 10.923 18.1105 10.4843 17.7985 10.1891C17.4935 9.90079 16.9521 9.625 16 9.625C15.1473 9.625 14.4999 9.84009 14.1031 10.138Z"
        fill="black" />
    <path
        d="M16 25.2083C17.1736 25.2083 18.125 24.2569 18.125 23.0833C18.125 21.9098 17.1736 20.9583 16 20.9583C14.8264 20.9583 13.875 21.9098 13.875 23.0833C13.875 24.2569 14.8264 25.2083 16 25.2083Z"
        fill="black" />
    <path fill-rule="evenodd" clip-rule="evenodd"
        d="M0.416748 16C0.416748 7.39356 7.39365 0.416664 16.0001 0.416664C24.6065 0.416664 31.5834 7.39356 31.5834 16C31.5834 24.6064 24.6065 31.5833 16.0001 31.5833C7.39365 31.5833 0.416748 24.6064 0.416748 16ZM16.0001 3.25C8.95846 3.25 3.25008 8.95837 3.25008 16C3.25008 23.0417 8.95846 28.75 16.0001 28.75C23.0418 28.75 28.7501 23.0417 28.7501 16C28.7501 8.95837 23.0418 3.25 16.0001 3.25Z"
        fill="black" />
</svg>