<svg width="32" height="32" viewBox="0 0 32 32" fill="none" xmlns="http://www.w3.org/2000/svg">
<path d="M16 31.5833C19.0821 31.5833 22.095 30.6694 24.6576 28.9571C27.2203 27.2448 29.2177 24.811 30.3971 21.9635C31.5766 19.116 31.8852 15.9827 31.2839 12.9598C30.6826 9.93697 29.1984 7.16029 27.0191 4.98092C24.8397 2.80155 22.063 1.31738 19.0402 0.716097C16.0173 0.11481 12.884 0.423412 10.0365 1.60288C7.18903 2.78234 4.75525 4.7797 3.04293 7.34236C1.33061 9.90503 0.416666 12.9179 0.416666 16C0.407288 18.0491 0.803961 20.0797 1.58378 21.9746C2.36359 23.8695 3.51109 25.5911 4.96001 27.04C6.40893 28.4889 8.13055 29.6364 10.0254 30.4162C11.9203 31.196 13.9509 31.5927 16 31.5833ZM16 3.25C18.5217 3.25 20.9868 3.99778 23.0835 5.39876C25.1802 6.79975 26.8144 8.79103 27.7795 11.1208C28.7445 13.4505 28.997 16.0141 28.505 18.4874C28.0131 20.9607 26.7987 23.2325 25.0156 25.0156C23.2325 26.7987 20.9607 28.0131 18.4874 28.505C16.0141 28.997 13.4505 28.7445 11.1208 27.7795C8.79103 26.8144 6.79975 25.1802 5.39876 23.0835C3.99777 20.9868 3.25 18.5217 3.25 16C3.2686 12.6242 4.61787 9.39201 7.00494 7.00494C9.39201 4.61787 12.6242 3.2686 16 3.25Z" fill="#7D25AD" stroke="#7D25AD" stroke-width="0.00048"/>
<path d="M15.9999 18.8333C16.3756 18.8333 16.736 18.6841 17.0017 18.4184C17.2673 18.1527 17.4166 17.7924 17.4166 17.4167V8.91667C17.4166 8.54094 17.2673 8.18061 17.0017 7.91493C16.736 7.64926 16.3756 7.5 15.9999 7.5C15.6242 7.5 15.2639 7.64926 14.9982 7.91493C14.7325 8.18061 14.5833 8.54094 14.5833 8.91667V17.4167C14.5833 17.7924 14.7325 18.1527 14.9982 18.4184C15.2639 18.6841 15.6242 18.8333 15.9999 18.8333Z" fill="#7D25AD" stroke="#7D25AD" stroke-width="0.00048"/>
<path d="M15.9999 24.5C16.7823 24.5 17.4166 23.8657 17.4166 23.0833C17.4166 22.3009 16.7823 21.6667 15.9999 21.6667C15.2175 21.6667 14.5833 22.3009 14.5833 23.0833C14.5833 23.8657 15.2175 24.5 15.9999 24.5Z" fill="#7D25AD" stroke="#7D25AD" stroke-width="0.00048"/>
</svg>
