<svg width="20" height="14" viewBox="0 0 20 14" fill="none" xmlns="http://www.w3.org/2000/svg">
<path d="M14.1116 13.2736L19.6449 7.78723L19.6911 7.7443C19.8763 7.56071 19.984 7.31859 20 7.03252L19.9991 6.93635C19.9856 6.70974 19.899 6.49326 19.7284 6.29927L19.6638 6.23262L14.1116 0.72643C13.701 0.319264 13.0371 0.319264 12.6265 0.72643C12.2135 1.13603 12.2135 1.80197 12.6265 2.21154L16.4601 6.01373L1.05235 6.01336C0.472139 6.01336 0 6.48154 0 7.0613C0 7.64106 0.472144 8.10925 1.05234 8.10925L16.3364 8.10963L12.6265 11.7884C12.2135 12.198 12.2135 12.864 12.6265 13.2736C13.0371 13.6807 13.701 13.6807 14.1116 13.2736Z" fill="#F8F8F8"/>
</svg>
