<svg width="24" height="23" viewBox="0 0 24 23" fill="none" xmlns="http://www.w3.org/2000/svg">
<path d="M24 21.6338C24 21.6338 19.353 17.1721 17.0295 14.9413C19.7757 11.8992 19.9662 7.07882 17.4563 3.85103C15.01 0.464744 10.0756 -0.922077 6.10547 0.638591C2.20322 2.03669 -0.440896 6.08483 0.0610601 10.0696C0.439209 14.2854 4.25248 17.8698 8.63492 18.2189C11.0953 18.4685 13.6413 17.7633 15.5806 16.2884L22.576 23L24 21.6338ZM2.05277 9.13736C1.98095 5.67554 4.90571 2.5001 8.46624 2.04992C12.0278 1.45817 15.8065 3.67624 16.838 7.00691C17.9298 10.1229 16.3761 13.7943 13.3761 15.3565C10.3041 17.1038 6.02144 16.3671 3.78289 13.6943C2.67417 12.4302 2.04573 10.7908 2.05277 9.13736Z" fill="#395291" fill-opacity="0.7"/>
</svg>
